<?xml version="1.0" encoding="utf-8"?>
<!-- Generator: Adobe Illustrator 25.3.0, SVG Export Plug-In . SVG Version: 6.00 Build 0)  -->
<svg version="1.1" id="Capa_1" xmlns="http://www.w3.org/2000/svg" xmlns:xlink="http://www.w3.org/1999/xlink" x="0px" y="0px"
	 viewBox="0 0 512 512" style="enable-background:new 0 0 512 512;" xml:space="preserve">
<style type="text/css">
	.st0{fill:#9CC5FA;}
	.st1{fill:#B0D1FB;}
	.st2{fill:#CAE1FE;}
	.st3{fill:#BAD9FB;}
	.st4{fill:#80B3FA;}
	.st5{fill:#E0F0FE;}
	.st6{fill:#EDEAED;}
	.st7{fill:#9DC5FA;}
</style>
<g>
	<path class="st0" d="M190.15,447.58c-6.37-1.94-13.05-2.48-19.43-4.44c-20.41-6.26-37.56-17.37-51.41-33.66
		c-12.19-14.34-20.2-30.69-24.14-49.02c-4.23-19.66-2.85-39.02,3.74-58.01c1.5-1.06,2.58,0.16,3.72,0.74
		c11.18,5.74,19.71,4.44,28.79-4.42c4.21-4.11,5.57-4.24,9.52-0.12c5.62,5.87,12.26,8.74,20.42,7.8c0.63-0.07,1.24,0.01,1.77,0.4
		c0.88,1.76,0.02,3.42-0.37,5.08c-5.51,23.03-4.06,45.61,5.12,67.43c11.76,27.95,31.53,48.07,59.78,59.63
		c2.34,0.96,5.52,0.87,6.55,4.05c-6.32,1.77-12.69,3.29-19.26,3.81c-0.63,0.05-1.23,0.14-1.61,0.73c-0.75,0-1.5,0-2.24,0
		c-1.25-0.61-2.49-0.61-3.74,0C201.63,447.58,195.89,447.58,190.15,447.58z"/>
	<path class="st1" d="M207.36,447.58c1.25-1.1,2.49-1.13,3.74,0C209.86,447.58,208.61,447.58,207.36,447.58z"/>
	<path class="st2" d="M234.22,443.04c-2.14-1.83-4.92-2.25-7.4-3.32c-36.86-15.94-58.8-43.95-66.53-83.1
		c-3.29-16.7-2.05-33.35,2.86-49.69c0.1-0.16,0.2-0.32,0.3-0.49c4.79-2.18,9.06-5.01,12.79-8.83c2.77-2.84,5.3-2.48,7.99,0.65
		c9.55,11.12,25.75,10.97,34.94-0.11c2.71-3.27,5.58-3.23,8.56,0.03c4.03,4.4,8.89,7.09,14.71,8.27c3.83,0.78,7.39-0.87,11.11-0.88
		c1.83,0.47,2.31,2.13,3.05,3.53c10.97,20.7,27.42,34.96,49.69,42.44c1.58,0.53,3.51,0.62,4.33,2.52
		c-2.04,11.28-5.13,22.26-10.34,32.49c-13.75,27.01-34.74,45.86-63.6,55.66C235.87,442.48,235.04,442.76,234.22,443.04z"/>
	<path class="st0" d="M350.97,185.79c35.48,9.04,58.52,31.2,66.12,66.94c7.17,33.71-3.75,62.3-30.19,84.65
		c-10.46,8.85-22.58,14.39-35.92,17.32c-26.51-7.06-45.7-22.98-57.53-47.72c-4.78-10-7.36-20.53-7.92-31.68
		c-0.31-6.24-0.1-12.34,0.91-18.46c1.94-0.51,2.17,1.25,2.83,2.26c4.66,7.14,12.85,10.39,20.73,8.15
		c7.87-2.24,13.48-9.43,13.74-17.63c0.37-11.58-11.66-21.12-22.92-18.23c-1.64,0.42-3.18,1.57-5.02,0.96
		c-1.49-2.01,0.1-3.6,0.94-5.09c8.17-14.45,19.59-25.64,34.13-33.65C337.22,190.13,343.92,187.5,350.97,185.79z"/>
	<path class="st3" d="M163.16,306.93c-7.88,2.01-14.64-0.29-20.64-5.41c-1.04-0.88-2.03-1.85-2.89-2.9
		c-2.26-2.78-4.35-2.76-6.69-0.02c-5.2,6.1-11.77,9.38-19.9,9.02c-5.22-0.23-9.57-3.03-14.13-5.18
		c4.74-13.97,13.05-25.89,21.57-37.7c13.44-18.63,26.78-37.32,40.14-56.01c10.25-14.34,20.38-28.77,30.69-43.07
		c4.8-6.66,14.51-9.39,21.13-0.63c7.85,10.39,15.56,20.91,22.62,31.88c-0.1,2.16-1.61,3.59-2.76,5.18
		c-18.26,25.36-36.48,50.76-54.46,76.33c-5.33,7.58-9.23,15.93-12.47,24.58c-0.53,1.4-0.95,2.84-2.11,3.89L163.16,306.93z"/>
	<path class="st4" d="M350.97,185.79c-2.75,2.58-6.53,2.67-9.8,4c-19.86,8.11-34.99,21.41-44.96,40.47
		c-0.28,0.54-0.39,1.17-0.57,1.76c-0.11,1.24-1.01,1.94-1.87,2.64c-5.9,4.82-8.07,11-6.87,18.47c0.19,1.17,0.72,2.43-0.16,3.58
		c-0.3,10.61-1,21.23,1.42,31.74c3.11,13.52,8.8,25.73,17.65,36.46c11.64,14.11,26.27,23.61,43.87,28.58
		c0.51,0.14,0.88,0.8,1.32,1.22c-12.75,2.95-25.47,2.64-38.17-0.31c-0.72-0.17-1.45-0.23-2.18-0.35
		c-9.19-3.07-18.14-6.57-26.2-12.18c-12.26-8.54-22-19.2-28.74-32.56c-0.55-1.09-1.25-2.12-1.88-3.17
		c-1.26-0.93-1.84-2.31-2.38-3.71c-9.28-24.3-8.27-48.15,3.24-71.51c0.66-1.33,1.26-2.73,2.76-3.39
		c7.47-12.3,16.94-22.68,29.22-30.34c12.68-7.91,26.39-12.51,41.4-13.12C335.78,183.76,343.42,184.1,350.97,185.79z"/>
	<path class="st5" d="M257.43,227.54c-4.55,9.01-8.18,18.28-9.88,28.35c-2.67,15.86-0.93,31.12,4.79,46.05
		c0.53,1.39,0.98,2.8,1.47,4.21c-10.71,3.28-19.73,0.79-27.05-7.81c-2.13-2.5-4.87-2.32-6.96,0.36
		c-9.48,12.14-27.29,11.5-36.42-0.05c-2.24-2.83-4.23-2.94-7.09,0.12c-3.66,3.91-7.66,7.08-13.05,8.13
		c3.5-12.36,9.64-23.4,17.02-33.78c10.86-15.28,21.82-30.5,32.77-45.72c7.32-10.17,14.68-20.32,22.02-30.47
		C242.52,207.12,249.98,217.33,257.43,227.54z"/>
	<path class="st3" d="M300.83,156.47c-11.17,5.98-30.28,3.7-40.71-7.87c-12.35-13.69-13.95-32.65-1.18-49.32
		c7.39-9.65,14.24-19.72,21.34-29.61c0.58-0.81,1.1-1.66,1.75-2.4c3.45-3.93,5.75-3.81,8.86,0.5c3.35,4.63,6.66,9.28,9.99,13.92
		c1.18,2.08-0.22,3.55-1.28,5.04c-3.7,5.17-7.27,10.43-11.09,15.5c-12.95,17.18-7.63,41.18,10.04,51.69
		C299.54,154.5,301.03,154.77,300.83,156.47z"/>
	<path class="st5" d="M300.83,156.47c-7.64-4.31-13.81-9.99-17.32-18.25c-5.32-12.54-4.04-24.4,3.58-35.58
		c4.05-5.94,8.32-11.73,12.52-17.57c0.74-1.03,1.5-2,1.28-3.37c5.31,7.6,10.77,15.09,15.89,22.81c12.18,18.41,3.94,42.03-14.5,51.65
		C301.85,156.37,301.31,156.37,300.83,156.47z"/>
	<path class="st6" d="M311.53,315.94c-4.54,0.05-7.07-3.81-5.33-7.68c1.58-3.51,3.23-7,4.93-10.46
		c10.05-20.44,20.13-40.87,30.17-61.32c1.48-3.01,2.76-6.12,4.3-9.11c2.06-4,5.06-5.39,8.12-3.95c3.11,1.47,3.91,5.05,1.98,8.99
		c-12.92,26.38-25.86,52.75-38.75,79.14C315.74,314.04,314.38,316.15,311.53,315.94z"/>
	<path class="st6" d="M286.73,256.71c-3.11-10.42-0.06-18.62,8.91-24.69c7.67-3.25,14.91-2.95,21.77,2.27
		c5.82,4.43,8.59,13.45,6.2,21.19c-2.24,7.26-9.61,12.91-16.84,13.32C297.26,269.33,290.94,264.84,286.73,256.71z"/>
	<path class="st6" d="M375.76,289.86c-0.02,10.92-8.45,19.31-19.4,19.3c-10.76,0-19.51-8.68-19.54-19.36
		c-0.03-10.88,8.75-19.58,19.75-19.57C367.24,270.24,375.78,278.98,375.76,289.86z"/>
	<path class="st7" d="M305.28,257.55c-4.95,0.01-8.69-3.61-8.61-8.32c0.06-4.07,4.09-8.08,8.19-8.15c4.5-0.08,8.62,3.98,8.63,8.51
		C313.49,253.87,309.7,257.54,305.28,257.55z"/>
	<path class="st7" d="M364.53,289.71c0,4.59-3.44,8.18-7.87,8.22c-4.84,0.05-8.71-3.73-8.6-8.4c0.11-4.43,4.04-8.11,8.62-8.07
		C361.09,281.51,364.53,285.12,364.53,289.71z"/>
</g>
</svg>
