<?xml version="1.0" encoding="utf-8"?>
<!-- Generator: Adobe Illustrator 25.3.0, SVG Export Plug-In . SVG Version: 6.00 Build 0)  -->
<svg version="1.1" id="Capa_1" xmlns="http://www.w3.org/2000/svg" xmlns:xlink="http://www.w3.org/1999/xlink" x="0px" y="0px"
	 viewBox="0 0 512 512" style="enable-background:new 0 0 512 512;" xml:space="preserve">
<style type="text/css">
	.st0{fill:#E1DEF3;}
	.st1{fill:#BDBBDC;}
	.st2{fill:#F0EEF8;}
	.st3{fill:#DDDCEE;}
	.st4{fill:#FE405C;}
	.st5{fill:#7D81E6;}
	.st6{fill:#FE7D47;}
	.st7{fill:#8AB8FE;}
	.st8{fill:#453D81;}
	.st9{fill:#F8F8F8;}
</style>
<g>
	<path class="st0" d="M295.66,446.86c-11.76-0.96-22.48-4.97-32.42-11.16c-20.15-12.56-32.29-30.83-36.12-54.01
		c-3.78-22.9,1.86-43.82,16.54-62.09c3.29-4.09,6.77-7.94,11.02-11.04c1.71-1.25,1.33-3.09,1.33-4.8
		c0.01-34.4,0.01-68.79,0.01-103.19c0-28.91,0.16-57.83-0.05-86.74c-0.17-23.1,16.01-43.32,38.41-48.26
		c3.37-0.74,6.81-1.46,10.33-1.04c0.33,0.38,0.71,0.79,0.75,1.27c0.47,6.91,0.97,13.83-0.31,20.72c-1.07,1.51-2.81,1.45-4.36,1.79
		c-13.57,3-21.22,12.45-21.22,26.37c-0.01,65.06-0.09,130.13,0.13,195.19c0.02,6.41-1.87,10.71-7.02,14.47
		c-13,9.5-20.91,22.32-22.66,38.45c-1.78,16.35,2.92,30.75,14.02,43.03c10.03,11.09,22.56,16.95,37.34,18.26
		c1.36,0.12,2.77,0.15,3.72,1.4c0.98,7.4,1.76,14.79-0.43,22.12c-1.75,0-3.49,0-5.24,0C298.3,446.67,296.79,447.73,295.66,446.86z"
		/>
	<path class="st1" d="M304.66,86.92c0.01-7.46,0.03-14.93,0.04-22.39c22.88-0.43,43.84,16.99,47.85,39.68
		c0.55,3.09,0.74,6.16,0.74,9.27c-0.01,63.09,0.01,126.17-0.05,189.26c0,3.05,0.75,5.06,3.23,7.26
		c14.68,13.04,23.68,29.26,26.03,48.93c3.26,27.31-5.49,50.32-25.61,68.8c-11.93,10.95-26.21,17.42-42.46,19.17
		c-1.16,0.8-2.65-0.21-3.78,0.7c-2,0-3.99,0-5.99,0c0-7.48,0-14.96,0.01-22.44c0.16-0.15,0.32-0.3,0.47-0.46
		c6.12-1.01,12.27-1.68,18.21-3.77c21.23-7.44,36.2-28.42,36.37-50.87c0.14-19.75-8.17-35.15-23.84-46.62
		c-4.68-3.42-6.24-7.23-6.23-12.88c0.16-65.06-0.15-130.12,0.3-195.18c0.1-14.96-10.74-26.67-23.05-27.43
		c-0.62-0.04-1.22-0.25-1.77-0.56C304.98,87.23,304.82,87.07,304.66,86.92z"/>
	<path class="st2" d="M295.66,446.86c1.27,0.15,2.7-0.51,3.76,0.73c-1.25,0-2.49,0-3.74,0
		C295.68,447.35,295.67,447.11,295.66,446.86z"/>
	<path class="st3" d="M310.64,447.6c1.08-1.21,2.5-0.62,3.78-0.7c-0.03,0.23-0.04,0.46-0.04,0.7
		C313.14,447.6,311.89,447.6,310.64,447.6z"/>
	<path class="st4" d="M125.1,109.51c3.4-0.4,6.05,1.14,8.32,3.4c9.8,9.75,19.61,19.49,29.32,29.33c4.77,4.83,4.74,11.95,0.2,16.38
		c-4.55,4.45-11.48,4.26-16.38-0.55c-3.2-3.14-6.26-6.41-9.59-9.83c-1,1.52-0.63,2.88-0.63,4.13c-0.03,34.13-0.01,68.25-0.03,102.38
		c0,7.02-4.45,11.59-11.2,11.63c-1.38-1.4-1.21-3.22-1.22-4.94c-0.03-49-0.03-98,0-147C123.88,112.72,123.71,110.91,125.1,109.51z"
		/>
	<path class="st5" d="M170.02,199.28c6.79,0.16,11.17,4.71,11.18,11.72c0.02,33.88,0.01,67.77,0.01,101.65c0,1.37,0,2.73,0,5.17
		c3.85-3.84,7.11-7.12,10.39-10.38c3.17-3.16,6.99-4.31,11.29-3.13c8.05,2.2,11.28,12.02,5.47,18.19
		c-9.98,10.61-20.47,20.74-30.86,30.97c-1.96,1.93-4.52,3.1-7.48,2.72c-1.39-1.39-1.24-3.2-1.24-4.92
		c-0.03-49.02-0.03-98.04,0-147.07C168.77,202.48,168.63,200.67,170.02,199.28z"/>
	<path class="st6" d="M125.1,109.51c0,52.29,0,104.58,0,156.88c-7.01-0.36-11.22-4.87-11.23-12.19
		c-0.02-33.79-0.01-67.57-0.01-101.36c0-1.35,0-2.69,0-4.97c-3.95,3.9-7.24,7.35-10.75,10.56c-6.67,6.1-16.34,3.44-18.76-5.07
		c-1.16-4.09-0.04-7.77,2.83-10.69c9.97-10.13,20.03-20.17,30.15-30.15C119.4,110.48,122.02,109.25,125.1,109.51z"/>
	<path class="st7" d="M170.02,199.28c0,52.3,0,104.6,0,156.9c-3.52,0.24-6.28-1.42-8.62-3.74c-9.65-9.56-19.27-19.14-28.81-28.81
		c-4.9-4.97-5.02-11.92-0.53-16.43c4.47-4.5,11.44-4.39,16.43,0.46c3.2,3.11,6.16,6.47,9.22,9.72c0.35-0.14,0.7-0.28,1.04-0.43
		c0-1.28,0-2.56,0-3.84c0-33.89-0.01-67.78,0.01-101.67C158.77,204.21,163.12,199.54,170.02,199.28z"/>
	<path class="st8" d="M405.65,109.37c3.61,0,7.22-0.05,10.82,0.01c6.66,0.11,11.57,4.84,11.62,11.1c0.06,6.27-4.83,11.21-11.41,11.3
		c-7.34,0.1-14.68,0.1-22.02,0c-6.57-0.09-11.48-5.02-11.44-11.28c0.04-6.24,4.98-11.01,11.6-11.13
		C398.44,109.32,402.05,109.37,405.65,109.37z"/>
	<path class="st8" d="M405.69,221.61c-3.73,0-7.47,0.08-11.19-0.02c-6.36-0.17-11.19-4.98-11.26-11.09
		c-0.07-6.25,4.85-11.22,11.4-11.31c7.34-0.1,14.68-0.1,22.02,0c6.6,0.09,11.49,4.99,11.45,11.27c-0.04,6.28-4.94,11.02-11.59,11.14
		C412.9,221.67,409.3,221.61,405.69,221.61z"/>
	<path class="st8" d="M405.68,311.4c-3.73,0-7.47,0.08-11.2-0.02c-6.36-0.17-11.19-4.99-11.25-11.1
		c-0.06-6.25,4.85-11.21,11.41-11.3c7.34-0.1,14.68-0.1,22.02,0c6.59,0.09,11.49,5,11.44,11.27c-0.05,6.28-4.95,11.01-11.6,11.13
		C412.89,311.46,409.29,311.41,405.68,311.4z"/>
	<path class="st8" d="M400.04,176.7c-1.99,0-3.98,0.09-5.97-0.01c-6.08-0.31-10.79-5.18-10.84-11.12
		c-0.04-5.94,4.63-10.98,10.69-11.24c4.09-0.18,8.21-0.19,12.3,0c6.04,0.28,10.72,5.35,10.65,11.28
		c-0.06,5.79-4.63,10.66-10.5,11.07C404.27,176.82,402.15,176.69,400.04,176.7z"/>
	<path class="st8" d="M400.08,266.49c-2.11,0-4.24,0.12-6.34-0.03c-6.02-0.42-10.64-5.5-10.51-11.43
		c0.12-5.78,4.75-10.65,10.64-10.91c4.09-0.19,8.21-0.18,12.3,0c6.06,0.27,10.74,5.3,10.7,11.23c-0.04,5.94-4.74,10.81-10.83,11.13
		C404.06,266.58,402.07,266.5,400.08,266.49z"/>
	<path class="st9" d="M304.66,425.15c-27.27,0.39-52.01-21.28-55.48-48.13c-2.18-16.9,2.12-31.63,13.07-44.63
		c3.64-4.32,8.01-7.76,12.42-11.12c2.75-2.1,3.88-4.3,3.88-7.8c-0.1-66.7-0.08-133.41-0.07-200.11c0-14.68,11.55-26.32,26.19-26.44
		c0,0,0,0,0,0c1.28,1.44,1.2,3.22,1.2,4.96c0.02,34.1,0.02,68.2,0,102.29c0,1.49,0.01,2.99-0.61,4.4c-0.88,1.57-2.59,1.86-4.05,2.46
		c-4.44,1.84-6.42,5.28-6.66,9.91c-0.07,1.37-0.03,2.74-0.03,4.11c0,38.62-0.06,77.25,0.08,115.87c0.02,4.6-1.15,7.38-5.54,9.69
		c-12.08,6.34-18.7,19.92-16.63,32.49c2.43,14.76,11.93,24.85,26.05,27.8c2.26,0.47,4.8,0.21,6.62,2.13
		C306.07,410.43,306.84,417.82,304.66,425.15L304.66,425.15z"/>
	<path class="st0" d="M304.66,425.15c0-7.44,0-14.88,0-22.32c0.14-0.17,0.28-0.33,0.42-0.5c1.22-0.76,2.63-0.67,3.98-0.88
		c21.27-3.31,33.64-24.69,25.83-44.72c-2.89-7.4-8.03-13.02-15.02-16.48c-4.06-2.01-5.16-4.57-5.15-8.76
		c0.11-38.88,0.06-77.76,0.06-116.64c0-1.62,0.05-3.24-0.08-4.86c-0.38-4.52-2.51-7.74-6.94-9.24c-0.94-0.32-1.91-0.58-2.72-1.2
		c-0.13-0.17-0.26-0.35-0.39-0.53c0-37.37,0-74.74,0-112.12c13.86-0.89,26.36,12.45,26.3,26.17c-0.27,66.79-0.1,133.58-0.19,200.37
		c0,3.31,0.85,5.45,3.7,7.41c10.69,7.36,19.03,16.81,23.19,29.3c6.47,19.43,3.54,37.45-8.99,53.77
		c-9.26,12.07-21.88,18.39-36.56,21.02C309.7,425.39,307.15,425.11,304.66,425.15z"/>
	<path class="st6" d="M304.67,402.83c-18.37-1.57-30.15-11.78-33.22-28.8c-2.54-14.11,5.36-29.24,18.8-35.32
		c2.67-1.21,3.24-2.62,3.24-5.29c-0.08-40.4-0.06-80.81-0.05-121.21c0-7.97,3.41-11.95,11.23-13.18c0,0-0.03,0.28-0.03,0.28
		c1.78,2.02,1.22,4.5,1.22,6.8c0.03,50.62,0.03,101.24,0.03,151.86c0,12.97,0.02,25.93-0.02,38.9c-0.01,1.95,0.34,4.04-1.22,5.68
		L304.67,402.83z"/>
	<path class="st4" d="M304.64,402.55c0-67.75,0-135.5,0-203.24c6.76-0.01,11.23,4.54,11.23,11.58c0.02,27.28,0.01,54.56,0.01,81.84
		c0,13.7,0.04,27.4-0.04,41.1c-0.01,2.21,0.41,3.48,2.67,4.52c13.87,6.37,21.77,20.7,19.69,35.24
		c-2.12,14.79-13.78,26.56-28.73,28.91C307.9,402.74,306.25,402.55,304.64,402.55z"/>
</g>
</svg>
