<?xml version="1.0" encoding="utf-8"?>
<!-- Generator: Adobe Illustrator 25.3.0, SVG Export Plug-In . SVG Version: 6.00 Build 0)  -->
<svg version="1.1" id="Capa_1" xmlns="http://www.w3.org/2000/svg" xmlns:xlink="http://www.w3.org/1999/xlink" x="0px" y="0px"
	 viewBox="0 0 512 512" style="enable-background:new 0 0 512 512;" xml:space="preserve">
<style type="text/css">
	.st0{fill:#405580;}
	.st1{fill:#283D66;}
	.st2{fill:#96C5FE;}
	.st3{fill:#6AA8FE;}
	.st4{fill:#B3D1D6;}
	.st5{fill:#E2E9ED;}
	.st6{fill:#879FAE;}
</style>
<g>
	<path class="st0" d="M83.97,447.6c-6.59-2.51-9.17-7.39-8.82-14.28c0.36-7.05-0.58-14.17,1.26-21.14
		c3.69-13.99,16.32-24.06,30.75-24.4c5.96-0.14,11.93-0.13,17.89-0.2c3.85-1.53,7.67-1.66,11.48,0.15c1.19,1.63,1.02,3.54,1.02,5.38
		c0.03,16.39,0.03,32.78,0,49.17c0,1.85,0.16,3.76-1.2,5.31C118.89,447.6,101.43,447.6,83.97,447.6z"/>
	<path class="st1" d="M136.35,447.6c0-19.95,0-39.9,0.01-59.85c0.16-0.15,0.31-0.3,0.47-0.46c3.19-1.05,6.42-0.68,9.65-0.33
		c0.4,0.17,0.78,0.38,1.14,0.64c5.72,0.05,11.44,0.1,17.15,0.14c17.01,0.12,31.62,14.37,32.11,31.41c0.13,4.6-0.23,9.22,0.11,13.8
		c0.5,6.85-1.97,11.76-8.27,14.65C171.27,447.6,153.81,447.6,136.35,447.6z"/>
	<path class="st2" d="M208.21,125.12c14.31-5.29,28.71-4.86,43.25-0.92c13.67,3.71,27.42,7.15,41.13,10.71
		c1.3,1.4,1.34,3.15,1.35,4.89c0.02,16.01,0.03,32.01-0.01,48.02c0,1.61,0.03,3.25-1.03,4.63c-1.57,1.34-3.49,1.17-5.34,1.17
		c-24.78,0.03-49.57,0.03-74.35,0.01c-1.49,0-3,0.04-4.42-0.53c-0.46-0.22-0.83-0.55-1.11-0.98c-0.8-1.63-0.69-3.38-0.69-5.11
		c-0.02-18.74-0.02-37.49,0-56.23C206.98,128.83,206.73,126.78,208.21,125.12z"/>
	<path class="st3" d="M208.3,192.48c28.15-0.02,56.3-0.04,84.45-0.06c0.16,0.19,0.33,0.37,0.49,0.56c0.83,1.63,0.68,3.39,0.68,5.12
		c0.02,15.17,0.02,30.34,0,45.52c0,1.96,0.26,4.02-1.16,5.71c-18.3,4.99-36.4,10.92-55.17,13.88c-9.89,1.56-19.84,0-29.33-3.55
		c-1.33-1.55-1.29-3.44-1.29-5.3c-0.02-18.88-0.03-37.77,0.02-56.65C206.99,195.89,206.69,193.92,208.3,192.48z"/>
	<path class="st4" d="M279.13,290.42c17.44,0,34.89,0.08,52.33-0.02c18.16-0.11,32.13,16.3,32.63,32.3
		c0.56,17.68-14,33.63-30.38,34.55c-4.47,0.25-8.89,0.95-13.32-0.06c-5.77-1.32-9.53-6.41-8.94-11.98
		c0.62-5.93,5.18-9.79,11.51-9.92c3.22-0.06,6.43,0.31,9.66-0.53c6.58-1.7,9.48-5.87,8.76-13.03c-0.49-4.91-5.42-8.86-11.21-8.86
		c-34.26-0.02-68.53-0.02-102.79,0.01c-2.78,0-5.47-0.32-7.99-1.47c-4.88-2.23-7.19-7.48-5.88-13.19c0.92-4.04,5.94-7.78,10.68-7.78
		C242.49,290.4,260.81,290.42,279.13,290.42z"/>
	<path class="st5" d="M377.27,131.84c-8.98,0-17.95,0.02-26.93,0c-7.41-0.02-11.99-4.35-11.98-11.28
		c0.01-6.88,4.62-11.15,12.1-11.16c17.33-0.01,34.66,0.03,51.99-0.02c8.42-0.02,13.71-6.95,11.41-14.77
		c-1.2-4.08-5.8-7.47-10.52-7.64c-2.61-0.09-5.24,0.01-7.85-0.02c-6.2-0.07-11.61-5.47-11.47-11.4c0.14-5.87,5.43-10.85,11.46-11.06
		c9.46-0.33,18.59,0.34,26.77,6c9.79,6.77,14.85,16.39,14.63,27.82c-0.39,19.79-15.22,33.33-34.17,33.53
		C394.22,131.91,385.74,131.84,377.27,131.84z"/>
	<path class="st4" d="M377.68,253.01c8.6,0,17.2,0.17,25.8-0.04c16.68-0.4,31.4,13.65,33.11,29.86
		c2.02,19.13-13.04,35.79-29.91,36.97c-4.72,0.33-9.39,1.04-14.06-0.09c-5.38-1.31-9.16-6.62-8.57-11.96
		c0.62-5.65,5.1-9.65,10.83-9.86c3.59-0.13,7.22,0.54,10.77-0.55c5.45-1.67,9.48-6.84,8.86-11.47c-0.88-6.57-5.22-10.4-11.9-10.41
		c-17.08-0.02-34.15,0.02-51.23-0.02c-8.3-0.02-13.24-4.62-13.05-11.99c0.14-5.69,4.79-10.38,10.57-10.42
		C358.49,252.95,368.09,253.01,377.68,253.01z"/>
	<path class="st4" d="M136.36,387.75c-3.77-0.06-7.54-0.11-11.31-0.17c0-88.61,0.01-177.22,0.01-265.83c0-1.62,0.03-3.24,0.04-4.86
		c4.28-0.43,8.36-0.02,11.89,2.78c0.71,1.8,0.57,3.68,0.57,5.54c0.01,85.33,0.01,170.65-0.01,255.98c0,2.19,0.47,4.54-1.29,6.4
		L136.36,387.75z"/>
	<path class="st4" d="M208.3,192.48c-0.01,22.39-0.03,44.79-0.04,67.18c-10.2-3.22-18.42-9.67-26.55-16.26
		c-10.62-8.61-21.27-17.18-31.92-25.75c-0.46-0.37-1.05-0.56-2.16-1.14c0,57.33,0,114.21,0,171.09c0,0-0.36,0.06-0.36,0.06
		l-0.36-0.07c-1.42-1.38-1.27-3.19-1.27-4.91c-0.03-54.3-0.15-108.61,0.12-162.91c0.04-7.81,0.55-15.66,0.64-23.5
		c0.02-1.37,0.09-2.75,0.95-3.93c1.48-1.21,3.26-1.09,4.99-1.1c16.93-0.03,33.85-0.03,50.78,0c1.72,0,3.53-0.19,4.95,1.16
		L208.3,192.48z"/>
	<path class="st6" d="M147.58,192.43c-1.35,65.05-0.5,130.11-0.69,195.16c-3.54,0-7.08,0.01-10.63,0.01c0-89.45,0-178.89,0-268.34
		c0.91-1.34,2.49-1.04,3.73-1.58c2.49-0.09,4.72-2.21,7.38-0.95c0.07,17.25,0.13,34.5,0.2,51.75
		C149.29,171.98,149.29,188.87,147.58,192.43z"/>
	<path class="st5" d="M147.58,192.43c0-7.98,0-15.96,0-23.94c14.92-11.81,29.8-23.68,44.79-35.39c4.71-3.68,10.08-6.26,15.83-7.98
		c-0.05,22.43-0.1,44.86-0.16,67.28C187.89,192.41,167.74,192.42,147.58,192.43z"/>
	<path class="st5" d="M292.75,192.41c-0.05-19.17-0.11-38.33-0.16-57.5c15.7,4.2,31.4,8.4,47.09,12.62
		c3.56,0.96,7.1,1.99,10.65,2.98c1.08,1.2,1.19,2.69,1.19,4.19c0.04,11.15,0.06,22.3-0.01,33.46c-0.01,1.24-0.12,2.48-0.74,3.61
		c-1.26,1.74-3.16,1.84-5.02,1.85c-16.25,0.08-32.51,0.06-48.76,0.01c-1.49,0-3-0.06-4.16-1.24L292.75,192.41z"/>
	<path class="st4" d="M292.83,192.38c17.94,0.02,35.88,0.03,53.82,0.05c1.26,0,2.5,0.02,3.57-0.79c0.41,0.3,0.7,0.69,0.88,1.17
		c0.82,3.43,0.39,6.93,0.41,10.39c0.07,8.57,0.04,17.14,0.01,25.72c-0.01,1.84,0.22,3.77-1.16,5.32
		c-19.2,5.02-38.4,10.05-57.6,15.07C292.78,230.34,292.81,211.36,292.83,192.38z"/>
	<path class="st2" d="M350.32,192.44c-0.03-0.26-0.06-0.53-0.09-0.79c0.04-13.71,0.07-27.42,0.11-41.13
		c15.15,3.95,30.3,7.88,45.44,11.87c7.21,1.9,14.47,3.67,21.57,5.93c12.24,3.89,17.31,14.34,17.5,25.89
		c0.01,0.69-0.41,1.39-0.63,2.08c-1.74-2.35-4.18-2.68-6.92-2.68c-23.51,0.06-47.02,0.05-70.53,0.02
		C354.56,193.63,352.24,194.04,350.32,192.44z"/>
	<path class="st3" d="M350.32,192.44c26.63,0,53.27,0.05,79.9-0.08c3.12-0.02,4.33,0.92,4,3.93c-1.13,9.61-8.25,18.01-18.05,20.64
		c-21.91,5.88-43.87,11.56-65.81,17.32C350.35,220.31,350.33,206.38,350.32,192.44z"/>
	<path class="st0" d="M140.22,118.46c-1.16,1.05-2.65,0.46-3.95,0.8c-3.72-0.79-7.44-1.58-11.16-2.37
		c-8.49-4.69-14.36-11.27-15.93-21.23c-2.59-16.36,10.51-31.4,27.2-31.07c1.5,1.66,1.14,3.73,1.15,5.68
		c0.04,13.77,0.07,27.54-0.02,41.32C137.48,114.36,137.89,116.74,140.22,118.46z"/>
	<path class="st1" d="M140.22,118.46c-2.95,0.29-3.99-0.82-3.96-3.98c0.17-16.63,0.1-33.26,0.11-49.88
		c11.12-0.38,21.62,7.17,25.46,18.3c3.85,11.14-0.01,23.72-9.46,30.64c-1.59,1.16-3.32,2.14-4.98,3.2
		C144.95,117.14,142.77,118.57,140.22,118.46z"/>
</g>
</svg>
